<?xml version="1.0" encoding="UTF-8" ?>
<!DOCTYPE svg PUBLIC "-//W3C//DTD SVG 1.1//EN" "http://www.w3.org/Graphics/SVG/1.1/DTD/svg11.dtd">
<svg width="100pt" height="100pt" viewBox="0 0 100 100" version="1.1" xmlns="http://www.w3.org/2000/svg">
<path fill="#ffffff" d=" M 0.00 0.00 L 100.00 0.00 L 100.00 100.00 L 86.56 100.00 C 83.96 90.85 76.73 84.08 69.01 79.01 C 69.43 74.63 69.77 70.24 70.37 65.89 C 71.79 70.00 73.10 74.36 72.02 78.74 C 72.25 79.35 72.48 79.97 72.72 80.59 C 76.47 68.19 81.26 55.16 78.01 42.06 C 78.58 42.53 79.72 43.48 80.29 43.96 C 79.46 38.20 78.26 32.18 74.66 27.44 C 72.92 25.05 70.25 23.66 67.80 22.15 C 69.96 22.82 72.12 23.49 74.28 24.19 C 68.51 17.94 59.85 15.80 51.61 16.23 C 51.57 15.84 51.50 15.06 51.46 14.67 C 50.98 15.16 50.02 16.15 49.54 16.64 C 42.74 18.00 35.40 18.41 29.54 22.54 C 27.49 23.83 26.38 26.02 25.23 28.06 C 28.00 25.63 30.91 23.27 34.48 22.13 C 30.02 25.90 25.81 30.18 23.96 35.88 C 24.35 35.80 25.14 35.63 25.53 35.55 C 22.55 47.21 22.82 60.38 29.75 70.65 C 30.08 65.77 30.38 60.88 31.51 56.11 C 32.07 61.11 32.55 66.12 33.46 71.06 C 33.89 73.75 33.67 76.47 33.73 79.17 C 25.96 84.13 19.10 91.05 16.23 100.00 L 0.00 100.00 L 0.00 0.00 Z" />
<path fill="#0e313f" d=" M 51.46 14.67 C 51.50 15.06 51.57 15.84 51.61 16.23 C 52.41 22.48 51.48 28.76 51.14 35.00 C 47.65 32.72 42.71 31.74 39.08 34.20 C 36.62 37.14 36.36 41.24 35.50 44.84 C 35.28 46.14 35.12 47.46 35.00 48.77 C 34.81 54.05 34.77 59.33 34.87 64.60 C 34.93 67.00 34.99 69.40 35.07 71.80 L 33.46 71.06 C 32.55 66.12 32.07 61.11 31.51 56.11 C 30.38 60.88 30.08 65.77 29.75 70.65 C 22.82 60.38 22.55 47.21 25.53 35.55 C 25.14 35.63 24.35 35.80 23.96 35.88 C 25.81 30.18 30.02 25.90 34.48 22.13 C 30.91 23.27 28.00 25.63 25.23 28.06 C 26.38 26.02 27.49 23.83 29.54 22.54 C 35.40 18.41 42.74 18.00 49.54 16.64 C 50.02 16.15 50.98 15.16 51.46 14.67 Z" />
<path fill="#0b2630" d=" M 51.61 16.23 C 59.85 15.80 68.51 17.94 74.28 24.19 C 72.12 23.49 69.96 22.82 67.80 22.15 C 70.25 23.66 72.92 25.05 74.66 27.44 C 78.26 32.18 79.46 38.20 80.29 43.96 C 79.72 43.48 78.58 42.53 78.01 42.06 C 81.26 55.16 76.47 68.19 72.72 80.59 C 72.48 79.97 72.25 79.35 72.02 78.74 C 73.10 74.36 71.79 70.00 70.37 65.89 C 69.77 70.24 69.43 74.63 69.01 79.01 C 68.29 81.37 67.43 83.70 66.59 86.02 C 66.19 85.28 65.80 84.53 65.40 83.78 C 65.51 81.41 65.65 79.04 65.65 76.66 C 65.61 74.89 65.51 73.11 65.38 71.35 C 65.31 70.53 65.18 68.89 65.11 68.07 C 66.81 65.71 68.32 63.22 69.79 60.72 C 71.54 57.49 75.63 56.30 77.11 52.87 C 77.81 49.74 75.46 47.31 73.40 45.36 C 72.27 47.16 71.21 49.00 70.23 50.88 C 70.03 46.81 69.34 42.56 66.74 39.28 C 63.91 35.14 59.28 32.97 54.92 30.84 C 56.71 34.31 57.02 38.21 56.82 42.05 C 55.45 39.70 54.02 37.34 51.93 35.56 C 51.73 35.42 51.34 35.14 51.14 35.00 C 51.48 28.76 52.41 22.48 51.61 16.23 Z" />
<path fill="#efbb84" d=" M 54.92 30.84 C 59.28 32.97 63.91 35.14 66.74 39.28 C 69.34 42.56 70.03 46.81 70.23 50.88 C 71.21 49.00 72.27 47.16 73.40 45.36 C 75.46 47.31 77.81 49.74 77.11 52.87 C 75.63 56.30 71.54 57.49 69.79 60.72 C 68.32 63.22 66.81 65.71 65.11 68.07 C 65.18 68.89 65.31 70.53 65.38 71.35 C 64.93 70.90 64.02 70.00 63.56 69.55 C 60.17 72.40 55.93 73.69 51.85 75.17 C 51.49 76.80 51.48 78.49 51.37 80.15 C 46.15 80.17 40.93 78.87 36.55 75.98 C 37.26 73.61 37.79 71.20 38.28 68.78 C 41.72 72.23 46.38 73.96 51.08 74.88 C 51.21 65.68 52.03 56.39 50.81 47.23 L 50.80 46.88 C 51.20 47.00 52.02 47.23 52.43 47.35 C 54.23 50.85 57.55 54.33 61.90 53.33 C 66.09 52.88 68.11 48.73 68.53 44.98 C 62.64 44.83 56.71 44.55 50.89 45.71 L 49.19 45.08 C 49.73 44.97 50.81 44.77 51.36 44.67 C 51.60 41.64 51.63 38.59 51.93 35.56 C 54.02 37.34 55.45 39.70 56.82 42.05 C 57.02 38.21 56.71 34.31 54.92 30.84 Z" />
<path fill="#ffd198" d=" M 39.08 34.20 C 42.71 31.74 47.65 32.72 51.14 35.00 C 51.34 35.14 51.73 35.42 51.93 35.56 C 51.63 38.59 51.60 41.64 51.36 44.67 C 50.81 44.77 49.73 44.97 49.19 45.08 C 44.63 44.76 40.06 44.91 35.50 44.84 C 36.36 41.24 36.62 37.14 39.08 34.20 Z" />
<path fill="#1c1c19" d=" M 35.00 48.77 C 35.12 47.46 35.28 46.14 35.50 44.84 C 40.06 44.91 44.63 44.76 49.19 45.08 L 50.89 45.71 C 56.71 44.55 62.64 44.83 68.53 44.98 C 68.11 48.73 66.09 52.88 61.90 53.33 C 57.55 54.33 54.23 50.85 52.43 47.35 C 52.02 47.23 51.20 47.00 50.80 46.88 L 50.81 47.23 C 48.98 50.04 46.77 53.45 42.97 53.43 C 39.50 53.95 36.88 51.31 35.00 48.77 Z" />
<path fill="#ffd298" d=" M 50.81 47.23 C 52.03 56.39 51.21 65.68 51.08 74.88 C 46.38 73.96 41.72 72.23 38.28 68.78 C 37.07 67.44 35.97 66.02 34.87 64.60 C 34.77 59.33 34.81 54.05 35.00 48.77 C 36.88 51.31 39.50 53.95 42.97 53.43 C 46.77 53.45 48.98 50.04 50.81 47.23 Z" />
<path fill="#fefdff" d=" M 34.87 64.60 C 35.97 66.02 37.07 67.44 38.28 68.78 C 37.79 71.20 37.26 73.61 36.55 75.98 C 35.61 74.76 35.22 73.30 35.07 71.80 C 34.99 69.40 34.93 67.00 34.87 64.60 Z" />
<path fill="#e2ab71" d=" M 51.85 75.17 C 55.93 73.69 60.17 72.40 63.56 69.55 C 64.02 70.00 64.93 70.90 65.38 71.35 C 65.51 73.11 65.61 74.89 65.65 76.66 C 62.06 78.50 58.17 79.57 54.20 80.19 C 53.49 80.18 52.08 80.16 51.37 80.15 C 51.48 78.49 51.49 76.80 51.85 75.17 Z" />
<path fill="#1c1c1b" d=" M 33.46 71.06 L 35.07 71.80 C 35.22 73.30 35.61 74.76 36.55 75.98 C 40.93 78.87 46.15 80.17 51.37 80.15 C 52.08 80.16 53.49 80.18 54.20 80.19 C 53.26 80.46 52.32 80.74 51.39 81.04 C 51.52 83.02 51.62 85.01 51.72 87.00 L 51.34 87.00 C 44.88 86.57 37.27 85.32 33.73 79.17 C 33.67 76.47 33.89 73.75 33.46 71.06 Z" />
<path fill="#0c0c0c" d=" M 54.20 80.19 C 58.17 79.57 62.06 78.50 65.65 76.66 C 65.65 79.04 65.51 81.41 65.40 83.78 C 61.01 85.44 56.45 86.84 51.72 87.00 C 51.62 85.01 51.52 83.02 51.39 81.04 C 52.32 80.74 53.26 80.46 54.20 80.19 Z" />
<path fill="#383838" d=" M 69.01 79.01 C 76.73 84.08 83.96 90.85 86.56 100.00 L 51.12 100.00 C 51.41 95.67 51.58 91.33 51.34 87.00 L 51.72 87.00 C 56.45 86.84 61.01 85.44 65.40 83.78 C 65.80 84.53 66.19 85.28 66.59 86.02 C 67.43 83.70 68.29 81.37 69.01 79.01 Z" />
<path fill="#494949" d=" M 16.23 100.00 C 19.10 91.05 25.96 84.13 33.73 79.17 C 37.27 85.32 44.88 86.57 51.34 87.00 C 51.58 91.33 51.41 95.67 51.12 100.00 L 16.23 100.00 Z" />
</svg>
